name C:\Users\antoi\Documents\MyRepositories\upper-imu-dc\Results\main_tracking\Case_74\kinematics.mot
datacolumns 43
datarows 11
range 2.80000000 3.00000000
endheader 
time	clav_prot	clav_elev	scapula_abduction	scapula_elevation	scapula_upward_rot	scapula_winging	plane_elv	shoulder_elv	axial_rot	TrapeziusScapula_M/activation	TrapeziusScapula_S/activation	TrapeziusScapula_I/activation	TrapeziusClavicle_S/activation	SerratusAnterior_I/activation	SerratusAnterior_M/activation	SerratusAnterior_S/activation	Rhomboideus_S/activation	Rhomboideus_I/activation	LevatorScapulae/activation	Coracobrachialis/activation	DeltoideusClavicle_A/activation	DeltoideusScapula_P/activation	DeltoideusScapula_M/activation	LatissimusDorsi_S/activation	LatissimusDorsi_M/activation	LatissimusDorsi_I/activation	PectoralisMajorClavicle_S/activation	PectoralisMajorThorax_I/activation	PectoralisMajorThorax_M/activation	TeresMajor/activation	Infraspinatus_I/activation	Infraspinatus_S/activation	PectoralisMinor/activation	TeresMinor/activation	Subscapularis_S/activation	Subscapularis_M/activation	Subscapularis_I/activation	Supraspinatus_P/activation	Supraspinatus_A/activation	TRIlong/activation	BIC_long/activation	BIC_brevis/activation	
          2.80000000	        -18.31286002	         -6.25672329	         -7.04751067	         -2.82150052	          6.82603949	          6.73900054	        -24.02854159	         17.52631736	         42.65247790	          0.01000001	          0.02305451	          0.01000000	          0.02260493	          0.01000002	          0.04425694	          0.01000001	          0.01000002	          0.01000002	          0.04386594	          0.01001192	          0.01000002	          0.01000002	          0.01000000	          0.01000001	          0.01000001	          0.01000002	          0.01000003	          0.01000000	          0.01000002	          0.01000098	          0.01000000	          0.01000000	          0.01000000	          0.01000001	          0.01250956	          0.01001602	          0.01292550	          0.01000003	          0.01000003	          0.01000007	          0.01000003	          0.01014906	
          2.82000000	        -18.19887610	         -5.54262288	         -7.70067854	         -3.17654404	          7.29462369	          6.72925729	        -23.96177698	         17.68612907	         42.61876264	          0.01000000	          0.02216687	          0.01000000	          0.02552509	          0.01235189	          0.04264374	          0.01000001	          0.01292219	          0.01388089	          0.03830579	          0.01000003	          0.01000002	          0.01000001	          0.01000000	          0.01000000	          0.01000000	          0.01000002	          0.01480708	          0.01000000	          0.01000003	          0.01000008	          0.01000000	          0.01000000	          0.01000000	          0.01000001	          0.01253720	          0.01139206	          0.01195556	          0.01000003	          0.01000013	          0.01000005	          0.01000005	          0.01000008	
          2.84000000	        -18.33342657	         -5.80776703	         -7.67394647	         -3.50218207	          7.68892967	          6.73755865	        -23.91790016	         17.80876652	         42.57243103	          0.01000000	          0.02239359	          0.01000000	          0.02402971	          0.01224812	          0.04127864	          0.01000001	          0.01309204	          0.01436094	          0.03728305	          0.01000016	          0.01000003	          0.01000001	          0.01000001	          0.01000000	          0.01000001	          0.01000002	          0.01405672	          0.01000000	          0.01000002	          0.01000009	          0.01000000	          0.01000000	          0.01000000	          0.01000001	          0.01248165	          0.01085947	          0.01174794	          0.01000003	          0.01000002	          0.01000003	          0.01000001	          0.01074776	
          2.86000000	        -18.45400620	         -6.04904483	         -7.66575498	         -3.78672117	          8.00880839	          6.75743439	        -23.88806334	         17.88413483	         42.50585751	          0.01000001	          0.02289757	          0.01000000	          0.02363627	          0.01277732	          0.04067857	          0.01000001	          0.01338840	          0.01537358	          0.03605709	          0.01000004	          0.01000001	          0.01000001	          0.01000001	          0.01000001	          0.01000001	          0.01000002	          0.01479416	          0.01000000	          0.01000003	          0.01000003	          0.01000000	          0.01000000	          0.01000000	          0.01000001	          0.01217075	          0.01084189	          0.01078259	          0.01000004	          0.01119660	          0.01000001	          0.01180035	          0.01000004	
          2.88000000	        -18.55810027	         -6.25684929	         -7.67357964	         -4.02338826	          8.25586211	          6.78379057	        -23.86451068	         17.90822528	         42.41293188	          0.01000001	          0.02491965	          0.01000000	          0.02386006	          0.01411489	          0.04151625	          0.01000002	          0.01361926	          0.01535992	          0.03548705	          0.01000003	          0.01020263	          0.01000001	          0.01328921	          0.01000001	          0.01000001	          0.01000002	          0.01539429	          0.01000000	          0.01000005	          0.01000001	          0.01000000	          0.01000000	          0.01000000	          0.01000001	          0.01129614	          0.01007003	          0.01016369	          0.01000004	          0.01218288	          0.01000000	          0.01289543	          0.01000006	
          2.90000000	        -18.64542516	         -6.42811200	         -7.69622677	         -4.21101466	          8.43343823	          6.81358015	        -23.83731141	         17.88894557	         42.29148040	          0.01000001	          0.02717382	          0.01000000	          0.02430212	          0.01573037	          0.04260201	          0.01000001	          0.01388048	          0.01538241	          0.03513562	          0.01000004	          0.01211317	          0.01000001	          0.01676246	          0.01000001	          0.01000001	          0.01000002	          0.01597926	          0.01000000	          0.01000003	          0.01000001	          0.01000000	          0.01000001	          0.01000000	          0.01000002	          0.01001059	          0.01000005	          0.01000004	          0.01000005	          0.01202470	          0.01000000	          0.01492745	          0.01000005	
          2.92000000	        -18.71673462	         -6.56529324	         -7.73292735	         -4.35271969	          8.54497020	          6.84598349	        -23.79628602	         17.84063450	         42.14701989	          0.01000001	          0.02955542	          0.01000000	          0.02488993	          0.01734426	          0.04390356	          0.01000001	          0.01411726	          0.01518695	          0.03490091	          0.01000004	          0.01389822	          0.01000000	          0.02040047	          0.01000001	          0.01000001	          0.01000002	          0.01678158	          0.01000000	          0.01000003	          0.01000000	          0.01004054	          0.01110015	          0.01000000	          0.01000006	          0.01000001	          0.01000001	          0.01000001	          0.01000006	          0.01262411	          0.01000000	          0.01681987	          0.01000004	
          2.94000000	        -18.77382770	         -6.67323940	         -7.78307601	         -4.45400126	          8.59585798	          6.88100447	        -23.73436465	         17.77940763	         41.97923793	          0.01000001	          0.03193618	          0.01000000	          0.02555452	          0.01905278	          0.04524698	          0.01000001	          0.01432803	          0.01490176	          0.03475027	          0.01000003	          0.01557701	          0.01000000	          0.02415359	          0.01000001	          0.01000001	          0.01000002	          0.01768527	          0.01000000	          0.01000003	          0.01000000	          0.01031210	          0.01218436	          0.01000000	          0.01000005	          0.01000002	          0.01000002	          0.01000001	          0.01000006	          0.01376098	          0.01000000	          0.01870045	          0.01000004	
          2.96000000	        -18.81920049	         -6.75763759	         -7.84600921	         -4.52150683	          8.59339256	          6.91887148	        -23.64750627	         17.72192055	         41.77584711	          0.01000001	          0.03423795	          0.01000000	          0.02625333	          0.02074590	          0.04657633	          0.01000001	          0.01451085	          0.01453934	          0.03463655	          0.01000003	          0.01727277	          0.01000000	          0.02790228	          0.01000001	          0.01000001	          0.01000002	          0.01860979	          0.01000000	          0.01000003	          0.01000000	          0.01076199	          0.01320785	          0.01000000	          0.01000005	          0.01000002	          0.01000002	          0.01000001	          0.01000010	          0.01490739	          0.01000000	          0.02059895	          0.01000004	
          2.98000000	        -18.85543869	         -6.82402731	         -7.92096158	         -4.56184005	          8.54527817	          6.95987461	        -23.53210684	         17.68486160	         41.51584306	          0.01000001	          0.03641640	          0.01000000	          0.02696904	          0.02234839	          0.04786074	          0.01000001	          0.01465771	          0.01407575	          0.03457185	          0.01000003	          0.01894000	          0.01000000	          0.03158138	          0.01000000	          0.01000001	          0.01000002	          0.01951655	          0.01000000	          0.01000003	          0.01000000	          0.01139269	          0.01424600	          0.01000000	          0.01000005	          0.01000002	          0.01000001	          0.01000001	          0.01000001	          0.01601364	          0.01000000	          0.02245141	          0.01000004	
          3.00000000	        -18.88485437	         -6.87697395	         -8.00685243	         -4.58080225	          8.45921818	          7.00404045	        -23.38479261	         17.68414871	         41.17216385	          0.01000001	          0.03845096	          0.01000000	          0.02767946	          0.02394143	          0.04908552	          0.01000001	          0.01479320	          0.01365203	          0.03456898	          0.01000003	          0.02053327	          0.01000000	          0.03516135	          0.01000000	          0.01000000	          0.01000002	          0.02036174	          0.01000000	          0.01000003	          0.01000000	          0.01214712	          0.01534990	          0.01000000	          0.01000005	          0.01000002	          0.01000001	          0.01000001	          0.01028122	          0.01704379	          0.01000000	          0.02418956	          0.01000004	
